<?xml version="1.0" encoding="utf-8"?>
<svg viewBox="440.2512 263.5602 1518.2927 391.9816" xmlns="http://www.w3.org/2000/svg">
  <path fill="#000000" opacity="1.000000" stroke="none" d="M 1200.958 392.838 C 1202.152 396.009 1203.227 398.929 1204.359 401.826 C 1205.032 403.55 1206.096 404.383 1208.204 404.168 C 1219.144 403.049 1228.67 411.302 1229.362 422.34 C 1230.018 432.785 1220.716 442.449 1209.682 442.329 C 1206.718 442.296 1205.478 443.206 1204.435 445.783 C 1198.151 461.308 1191.766 476.794 1185.298 492.244 C 1184.225 494.806 1184.869 496.228 1186.899 497.994 C 1197.079 506.855 1194.819 521.296 1182.553 526.641 C 1176.594 529.238 1169.377 527.833 1164.369 522.769 C 1162.614 520.995 1161.532 520.759 1159.327 522.225 C 1151.956 527.127 1144.384 531.725 1136.846 536.372 C 1135.031 537.491 1134.293 538.683 1134.543 541.015 C 1135.252 547.627 1131.335 553.911 1125.474 556.268 C 1119.577 558.64 1112.83 556.706 1108.585 551.056 C 1107.121 549.111 1105.948 548.852 1103.829 549.795 C 1095.412 553.543 1086.94 557.164 1078.46 560.772 C 1076.556 561.581 1075.819 562.666 1075.967 564.878 C 1076.587 574.175 1069.532 581.651 1060.045 582.006 C 1051.573 582.324 1043.734 574.612 1043.8 565.731 C 1043.82 563.101 1043.116 561.47 1040.67 560.416 C 1032.212 556.768 1023.786 553.044 1015.373 549.294 C 1013.627 548.516 1012.649 548.967 1011.514 550.491 C 1007.06 556.471 1001.016 558.538 994.946 556.393 C 988.904 554.258 985.39 548.806 985.627 541.404 C 985.706 538.948 984.99 537.437 982.887 536.135 C 975.358 531.473 967.899 526.698 960.494 521.839 C 958.664 520.638 957.58 521.067 956.228 522.504 C 951.514 527.516 945.628 529.03 939.171 527.106 C 932.391 525.085 928.365 520.207 927.158 513.226 C 926.056 506.848 928.427 501.653 933.455 497.824 C 935.466 496.291 935.791 495.101 934.86 492.775 C 928.504 476.889 922.063 461.039 915.338 445.303 C 914.4 443.11 913.41 442.239 910.843 442.457 C 900.418 443.339 890.628 433.597 890.9 422.882 C 891.179 411.853 900.95 402.768 911.482 404.091 C 914.277 404.443 915.081 403.214 915.86 401.153 C 922.115 384.59 928.345 368.016 934.721 351.499 C 935.736 348.868 934.282 347.816 932.686 346.472 C 927.678 342.26 925.522 336.946 927.044 330.48 C 928.613 323.809 932.978 319.519 939.491 317.872 C 945.704 316.302 951.459 317.78 955.911 322.592 C 957.67 324.493 958.941 324.519 961.065 323.228 C 968.527 318.698 976.11 314.365 983.668 309.992 C 985.409 308.985 986.046 307.858 985.652 305.653 C 984.442 298.901 988.214 292.39 994.538 289.673 C 1000.217 287.232 1007.224 289.116 1011.241 294.382 C 1012.578 296.137 1013.627 296.934 1015.934 295.858 C 1024.067 292.066 1032.297 288.48 1040.509 284.855 C 1042.514 283.97 1043.577 283.012 1043.467 280.354 C 1043.073 270.95 1049.863 263.768 1058.849 263.566 C 1069.039 263.336 1076.397 269.947 1076.484 279.705 C 1076.507 282.245 1077.295 283.569 1079.596 284.611 C 1087.445 288.161 1095.22 291.877 1102.975 295.63 C 1105.352 296.781 1106.905 296.705 1108.702 294.345 C 1112.853 288.895 1119.816 287.241 1125.771 289.811 C 1131.641 292.343 1135.42 298.664 1134.487 305.252 C 1134.128 307.785 1134.91 308.959 1136.927 310.063 C 1144.695 314.316 1152.444 318.605 1160.117 323.021 C 1162.124 324.177 1163.107 323.077 1164.433 321.979 C 1175.104 313.143 1189.642 317.614 1193.093 330.8 C 1194.782 337.252 1192.011 342.355 1187.528 346.527 C 1185.223 348.671 1184.745 350.437 1185.887 353.35 C 1190.994 366.379 1195.89 379.492 1200.958 392.838 M 1095.48 453.577 C 1092.836 456.491 1090.078 459.275 1086.256 461.444 C 1087.967 462.306 1089.582 462.981 1090.142 464.368 C 1091.304 467.244 1093.69 468.041 1096.292 468.643 C 1102.468 470.075 1108.573 471.767 1114.546 473.882 C 1116.592 474.606 1117.788 474.124 1119.018 472.346 C 1121.306 469.031 1124.264 466.298 1128.367 465.575 C 1130.786 465.149 1131.762 463.89 1132.466 461.761 C 1136.355 449.958 1140.339 438.186 1144.297 426.406 C 1144.758 425.035 1145.011 423.743 1144.551 422.234 C 1140.575 409.204 1136.611 396.17 1131.945 383.361 C 1131.315 381.627 1130.425 380.692 1128.449 380.363 C 1124.653 379.733 1121.489 377.705 1119.391 374.465 C 1118.233 372.674 1117.092 372.487 1115.225 373.082 C 1108.282 375.299 1101.297 377.378 1094.33 379.518 C 1093.185 379.869 1091.927 380.178 1091.372 381.359 C 1090.168 383.921 1088.041 385.269 1085.331 386.117 C 1087.24 386.44 1088.38 387.696 1089.618 388.774 C 1109.123 405.758 1111.654 432.085 1095.48 453.577 M 982.637 399.625 C 980.37 406.931 978.118 414.241 975.826 421.54 C 975.425 422.817 975.148 424.017 975.575 425.378 C 979.442 437.689 983.275 450.013 987.089 462.341 C 987.669 464.214 988.577 465.278 990.772 465.568 C 994.697 466.083 998.161 467.865 1000.176 471.444 C 1001.755 474.249 1003.674 474.408 1006.443 473.439 C 1010.613 471.98 1014.844 470.567 1019.162 469.691 C 1024.817 468.541 1029.588 466.3 1032.68 461.241 C 1004.982 442.519 1009.139 400.432 1034.103 386.214 C 1031.626 385.6 1029.553 384.562 1028.624 382.02 C 1028.26 381.02 1027.306 380.715 1026.383 380.407 C 1019.239 378.029 1012.085 375.681 1004.966 373.23 C 1003.241 372.637 1002.079 372.846 1001.012 374.422 C 998.819 377.666 995.538 379.479 991.827 380.201 C 989.553 380.643 988.629 381.806 987.992 383.805 C 986.356 388.928 984.579 394.006 982.637 399.625 M 1051.849 462.549 C 1057.796 463.839 1063.739 463.727 1069.602 462.178 C 1086.517 457.706 1096.234 446.199 1098.709 429.435 C 1101.041 413.65 1095.258 400.401 1081.648 391.411 C 1068.799 382.921 1055.225 382.156 1041.558 389.385 C 1028.288 396.402 1021.278 407.893 1020.61 422.647 C 1019.742 441.879 1031.759 456.958 1051.849 462.549 M 1196.812 407.946 C 1200.551 407.992 1200.152 405.921 1199.197 403.429 C 1192.938 387.124 1186.721 370.801 1180.451 354.499 C 1179.928 353.135 1179.889 351.189 1177.82 351.085 C 1175.597 350.974 1175.204 352.865 1174.666 354.42 C 1171.385 363.917 1168.183 373.442 1164.848 382.919 C 1164.245 384.634 1164.739 385.532 1166.102 386.485 C 1176.203 393.552 1186.265 400.672 1196.812 407.946 M 1127.564 335.173 C 1128.515 339.243 1129.587 343.287 1130.367 347.387 C 1130.764 349.474 1131.63 350.442 1133.788 350.739 C 1136.653 351.132 1139.372 352.18 1141.465 354.312 C 1142.986 355.858 1144.307 355.501 1145.859 354.35 C 1149.888 351.356 1154.013 348.489 1158.042 345.495 C 1159.034 344.759 1160.424 344.248 1160.539 341.959 C 1156.653 341.301 1152.946 341.599 1149.304 343.266 C 1147.15 344.251 1145.299 343.732 1143.892 341.91 C 1142.664 340.318 1142.644 338.526 1143.816 336.913 C 1145.269 334.911 1147.349 334.895 1149.264 335.96 C 1150.965 336.905 1152.682 336.964 1154.462 336.853 C 1156.191 336.747 1158.504 337.048 1158.588 334.529 C 1158.673 332.006 1160.857 329.087 1156.808 327.127 C 1150.038 323.851 1143.312 320.373 1136.987 316.325 C 1132.932 313.73 1129.796 313.103 1126.045 316.505 C 1124.761 317.671 1123.906 318.339 1124.374 320.245 C 1125.539 324.992 1126.458 329.798 1127.564 335.173 M 926.633 389.544 C 924.802 394.341 922.938 399.128 921.16 403.945 C 920.746 405.063 919.539 406.282 921.046 407.473 C 922.471 408.602 923.733 407.882 924.955 407.017 C 934.512 400.247 944.056 393.458 953.641 386.727 C 955.151 385.668 955.581 384.585 954.9 382.795 C 953.755 379.784 952.85 376.682 951.836 373.62 C 949.619 366.934 947.417 360.241 945.157 353.57 C 944.758 352.397 944.614 350.867 942.766 350.907 C 941.105 350.944 940.634 352.227 940.078 353.414 C 939.724 354.171 939.403 354.945 939.114 355.731 C 935.02 366.826 930.934 377.925 926.633 389.544 M 970.12 335.969 C 972.489 334.979 974.583 335.153 976.053 337.511 C 977.07 339.144 976.763 340.803 975.598 342.17 C 973.853 344.215 971.723 344.097 969.429 343.02 C 966.902 341.831 964.09 341.885 961.396 341.421 C 960.502 341.267 959.694 341.26 959.249 342.193 C 958.747 343.25 959.62 343.714 960.266 344.186 C 964.986 347.645 969.729 351.077 974.46 354.524 C 975.606 355.359 976.71 355.816 978.005 354.726 C 980.538 352.592 983.583 351.566 986.753 350.827 C 988.198 350.492 989.417 349.928 989.775 348.22 C 991.731 338.877 993.736 329.545 995.718 320.209 C 995.976 318.992 995.953 318.042 994.681 317.14 C 988.872 313.026 988.911 312.972 982.89 316.608 C 982.173 317.039 981.438 317.438 980.719 317.867 C 974.876 321.362 969.105 324.99 963.163 328.308 C 959.911 330.124 961.62 332.704 961.756 334.946 C 961.883 337.054 963.9 336.8 965.415 336.871 C 966.834 336.937 968.298 337.16 970.12 335.969 M 922.914 449.27 C 928.62 463.206 934.321 477.142 940.043 491.071 C 940.56 492.326 940.689 493.98 942.744 493.844 C 944.464 493.731 945.234 492.705 945.751 491.237 C 948.927 482.22 952.14 473.216 955.306 464.197 C 955.751 462.931 955.927 461.766 954.48 460.751 C 944.303 453.609 934.163 446.412 924.057 439.168 C 922.7 438.196 921.764 438.479 920.555 439.341 C 919.213 440.299 919.572 441.345 920.05 442.484 C 920.932 444.578 921.83 446.666 922.914 449.27 M 1144.26 509.399 C 1142.958 507.382 1142.758 505.341 1144.415 503.454 C 1146.078 501.562 1148.039 501.843 1150.313 502.486 C 1153.542 503.402 1156.91 504.029 1161.364 503.098 C 1155.324 498.672 1150.068 494.806 1144.792 490.967 C 1143.475 490.008 1142.532 491.024 1141.636 491.76 C 1139.451 493.554 1136.94 494.803 1134.199 495.09 C 1131.653 495.358 1130.795 496.641 1130.325 498.886 C 1128.731 506.483 1127.006 514.053 1125.336 521.634 C 1123.883 528.232 1123.938 528.158 1129.313 531.925 C 1130.854 533.005 1132.018 533.109 1133.485 532.048 C 1140.774 526.784 1148.663 522.478 1156.468 518.079 C 1160.095 516.034 1158.901 513.296 1158.513 510.713 C 1158.124 508.122 1155.664 509.262 1154.05 509.052 C 1152.619 508.863 1151.214 509.066 1149.942 509.946 C 1148.173 511.17 1146.366 511.114 1144.26 509.399 M 1175.994 453.702 C 1172.747 455.944 1169.495 458.175 1166.262 460.433 C 1165.209 461.168 1163.915 461.753 1164.535 463.511 C 1167.913 473.084 1171.255 482.67 1174.611 492.253 C 1175.053 493.514 1175.857 494.217 1177.29 494.148 C 1178.582 494.086 1179.122 493.324 1179.564 492.234 C 1186.212 475.848 1192.898 459.478 1199.536 443.088 C 1200.005 441.929 1200.692 440.666 1199.243 439.525 C 1197.777 438.369 1196.645 438.982 1195.395 439.881 C 1189.086 444.414 1182.753 448.912 1175.994 453.702 M 992.498 512.385 C 991.463 507.847 990.345 503.323 989.428 498.761 C 989.001 496.634 988.266 495.366 985.814 495.197 C 983.285 495.025 980.886 493.973 979.028 492.213 C 977.408 490.676 976.166 490.673 974.405 492.024 C 970.71 494.861 966.822 497.448 963.065 500.208 C 962.083 500.93 960.627 501.343 960.6 503.052 C 962.076 503.982 963.605 503.438 965.095 503.271 C 967.468 503.005 969.829 502.541 972.206 502.436 C 974.117 502.352 975.779 503.229 976.438 505.15 C 977.022 506.847 976.722 508.524 975.154 509.645 C 973.516 510.814 971.812 510.777 970.19 509.522 C 970 509.375 969.845 509.182 969.646 509.054 C 967.668 507.792 962.991 508.139 961.966 509.615 C 960.469 511.774 961.597 516.332 964.009 517.82 C 971.637 522.527 979.291 527.199 986.885 531.964 C 988.208 532.795 989.165 532.925 990.35 531.797 C 991.202 530.987 992.211 530.221 993.291 529.794 C 995.571 528.895 995.914 527.349 995.401 525.199 C 994.429 521.136 993.562 517.048 992.498 512.385 M 1029.514 373.927 C 1030.456 372.955 1031.587 372.179 1032.903 372.034 C 1036.155 371.674 1037.824 369.521 1039.267 366.938 C 1042.296 361.506 1045.399 356.117 1048.453 350.701 C 1049.3 349.199 1050.624 347.878 1048.671 346.001 C 1046.931 344.332 1045.608 343.553 1043.109 344.74 C 1031.015 350.486 1018.828 356.036 1006.644 361.588 C 1004.971 362.352 1003.842 363.138 1003.966 365.244 C 1004.089 367.307 1005.524 367.773 1006.998 368.256 C 1013.245 370.297 1019.505 372.298 1025.762 374.307 C 1026.884 374.667 1028.019 375.27 1029.514 373.927 M 1047.993 485.795 C 1048.86 487.362 1049.858 488.875 1050.573 490.511 C 1052.721 495.423 1055.524 498.873 1061.784 497.844 C 1063.966 497.485 1065.526 497.313 1066.66 495.214 C 1070.07 488.906 1073.497 482.6 1077.213 476.472 C 1079.064 473.423 1076.536 471.872 1075.643 469.741 C 1074.777 467.673 1073.092 468.44 1071.632 468.796 C 1063.945 470.664 1056.246 470.954 1048.605 468.724 C 1046.006 467.965 1044.885 469.559 1043.563 471.087 C 1042.229 472.627 1041.426 474.253 1042.609 476.287 C 1044.35 479.284 1046.038 482.311 1047.993 485.795 M 1077.374 361.578 C 1080.137 366.071 1081.505 371.983 1088.355 372.333 C 1088.768 372.354 1089.204 372.771 1089.552 373.09 C 1090.844 374.279 1092.218 374.334 1093.865 373.815 C 1100.477 371.73 1107.125 369.762 1113.754 367.732 C 1115.026 367.343 1116.231 366.934 1116.314 365.196 C 1116.396 363.467 1115.57 362.619 1114.106 361.943 C 1101.622 356.179 1089.137 350.414 1076.712 344.523 C 1074.494 343.47 1073.272 344.259 1071.737 345.718 C 1070.09 347.284 1070.177 348.681 1071.194 350.452 C 1073.219 353.978 1075.153 357.557 1077.374 361.578 M 1020.997 492.613 C 1028.391 496.242 1035.81 499.824 1043.163 503.534 C 1045.008 504.464 1046.22 504.084 1047.552 502.666 C 1048.877 501.255 1049.763 500.094 1048.538 498.032 C 1044.88 491.873 1041.438 485.585 1037.848 479.384 C 1035.664 475.612 1030.697 476.165 1027.944 473.209 C 1027.804 473.06 1027.257 473.255 1026.912 473.334 C 1019.812 474.979 1012.822 477.001 1005.914 479.324 C 1004.392 479.836 1003.475 480.74 1003.341 482.377 C 1003.196 484.124 1004.59 484.52 1005.737 485.089 C 1010.66 487.526 1015.595 489.935 1020.997 492.613 M 1068.958 357.692 C 1067.032 353.048 1064.583 349.199 1058.524 350.72 C 1058.203 350.801 1057.807 350.667 1057.467 350.562 C 1055.64 349.997 1054.582 350.805 1053.719 352.381 C 1050.154 358.882 1046.6 365.393 1042.87 371.801 C 1041.167 374.727 1043.247 376.478 1044.423 378.584 C 1045.563 380.628 1047.192 379.852 1048.819 379.427 C 1056.114 377.514 1063.412 377.067 1070.779 379.183 C 1072.292 379.618 1074.249 381.155 1075.514 378.714 C 1076.722 376.387 1078.719 374.33 1076.701 371.226 C 1073.968 367.023 1071.693 362.522 1068.958 357.692 M 1072.086 502.518 C 1073.415 504.336 1074.938 504.121 1076.789 503.234 C 1089.296 497.25 1101.561 490.759 1114.289 485.232 C 1115.571 484.674 1116.493 483.919 1116.441 482.296 C 1116.386 480.599 1115.267 480.062 1113.957 479.684 C 1108.564 478.136 1103.146 476.674 1097.771 475.06 C 1094.239 474 1090.765 472.386 1087.614 475.926 C 1087.203 476.387 1086.296 476.586 1085.615 476.597 C 1083.652 476.623 1082.551 477.802 1081.716 479.319 C 1078.32 485.5 1074.944 491.69 1071.607 497.9 C 1070.86 499.291 1070.247 500.782 1072.086 502.518 M 1100.265 329.323 C 1106.813 336.613 1113.345 343.916 1119.919 351.182 C 1120.889 352.256 1121.662 353.861 1123.716 352.646 C 1125.533 351.572 1125.626 350.295 1125.168 348.431 C 1123.262 340.666 1121.396 332.887 1119.721 325.068 C 1118.813 320.828 1117.792 316.957 1112.658 316.07 C 1111.796 315.923 1111.044 315.086 1110.255 314.548 C 1109.444 313.995 1108.628 313.497 1107.614 314.037 C 1103.113 316.44 1098.614 318.846 1093.935 321.347 C 1095.573 324.549 1098.06 326.507 1100.265 329.323 M 1010.716 313.402 C 1008.624 314.29 1007.448 316.637 1005.081 317.041 C 1002.671 317.452 1001.819 319.063 1001.34 321.217 C 999.322 330.303 997.237 339.374 995.164 348.446 C 994.792 350.071 994.038 351.801 995.964 352.933 C 998.087 354.179 999.009 352.225 1000.02 351.077 C 1008.232 341.754 1016.38 332.374 1024.541 323.005 C 1025.002 322.473 1025.531 321.94 1025.207 320.79 C 1020.736 318.289 1016.152 315.509 1010.716 313.402 M 1014.115 512.427 C 1009.008 506.744 1003.884 501.076 999.185 495.043 C 998.485 494.145 997.855 492.929 996.301 493.65 C 994.914 494.294 994.355 495.346 994.612 496.83 C 994.752 497.65 994.937 498.463 995.122 499.274 C 996.67 506.13 998.398 512.953 999.719 519.852 C 1000.677 524.859 1002.108 528.355 1007.423 531.223 C 1011.886 533.632 1014.423 533.138 1017.913 531.075 C 1019.249 530.285 1020.647 529.604 1021.989 528.825 C 1025.587 526.738 1025.724 526.269 1023.019 522.921 C 1020.245 519.485 1017.312 516.178 1014.115 512.427 M 1102.668 516.11 C 1100.491 518.653 1098.358 521.234 1096.126 523.728 C 1094.355 525.708 1094.367 527.172 1096.949 528.408 C 1099.643 529.696 1102.369 530.981 1104.874 532.59 C 1110.181 535.996 1112.002 528.992 1116.162 528.969 C 1117.445 528.961 1118.139 527.817 1118.422 526.52 C 1120.619 516.492 1122.835 506.468 1125.059 496.446 C 1125.36 495.089 1125.525 493.764 1124.045 493.004 C 1122.452 492.186 1121.976 493.713 1121.263 494.537 C 1115.164 501.588 1109.098 508.67 1102.668 516.11 M 1087.67 504.037 C 1084.563 505.575 1081.479 507.167 1078.336 508.633 C 1076.646 509.419 1076.01 510.506 1075.753 512.443 C 1075.24 516.285 1076.575 518.557 1080.154 519.894 C 1082.157 520.641 1084.041 521.752 1085.893 522.845 C 1087.867 524.009 1089.283 523.787 1090.825 521.946 C 1098.66 512.594 1106.621 503.347 1114.491 494.026 C 1115.191 493.199 1116.482 492.556 1115.868 490.451 C 1106.553 494.947 1097.36 499.387 1087.67 504.037 M 1020.738 511.577 C 1021.739 512.764 1022.761 513.936 1023.739 515.142 C 1031.431 524.625 1031.428 524.626 1042.007 518.614 C 1042.727 518.204 1043.559 517.91 1043.895 517.058 C 1045.097 514.012 1043.168 509.181 1040.097 507.817 C 1028.734 502.776 1017.535 497.401 1006.542 491.597 C 1005.321 490.952 1004.004 490.494 1002.73 489.951 C 1002.591 490.125 1002.449 490.299 1002.309 490.474 C 1008.335 497.384 1014.362 504.293 1020.738 511.577 M 1010.545 347.829 C 1008.541 350.514 1005.715 352.592 1004.284 355.78 C 1005.61 356.493 1006.409 355.732 1007.219 355.359 C 1018.177 350.337 1029.087 345.204 1040.088 340.278 C 1042.874 339.031 1043.853 337.418 1043.863 334.318 C 1043.873 331.187 1042.875 329.443 1040.065 328.316 C 1038.08 327.521 1036.125 326.529 1034.374 325.312 C 1031.963 323.634 1030.439 324.287 1028.695 326.401 C 1022.844 333.487 1016.827 340.436 1010.545 347.829 M 1097.502 299.093 C 1090.799 295.973 1084.062 292.922 1077.412 289.689 C 1075.347 288.686 1073.978 288.421 1072.212 290.443 C 1070.37 292.552 1071.422 293.86 1072.645 295.361 C 1077.915 301.836 1083.263 308.251 1088.476 314.774 C 1089.956 316.626 1091.404 316.867 1093.394 315.76 C 1096.418 314.082 1099.516 312.54 1102.565 310.909 C 1104.147 310.063 1105.926 309.286 1105.44 306.96 C 1104.973 304.729 1105.358 302.064 1102.241 301.197 C 1100.766 300.787 1099.412 299.946 1097.502 299.093 M 1098.762 348.712 C 1104.254 351.095 1109.42 354.253 1115.265 356.314 C 1115.574 354.117 1114.296 353.391 1113.473 352.449 C 1107.424 345.517 1101.274 338.672 1095.298 331.676 C 1087.901 323.017 1088.006 323.04 1078.096 329.246 C 1075.777 330.697 1075.844 332.524 1075.889 334.749 C 1075.935 336.985 1076.463 338.522 1078.727 339.516 C 1085.289 342.395 1091.761 345.483 1098.762 348.712 M 1028.084 315.893 C 1029.409 316.337 1030.429 315.829 1031.253 314.825 C 1036.799 308.075 1042.315 301.298 1047.894 294.575 C 1049.293 292.889 1048.174 291.784 1047.323 290.472 C 1046.446 289.118 1045.549 288.313 1043.812 289.11 C 1034.786 293.251 1025.745 297.363 1016.69 301.441 C 1014.095 302.608 1014.859 305.071 1014.363 307.047 C 1013.863 309.034 1015.562 309.452 1016.755 310.09 C 1020.344 312.005 1023.983 313.826 1028.084 315.893 M 966.99 377.55 C 968.802 376.174 970.608 374.793 972.428 373.427 C 973.423 372.679 974.352 371.834 974.018 370.463 C 973.357 367.741 973.192 365.039 973.833 362.292 C 974.096 361.16 973.284 360.524 972.508 359.948 C 967.32 356.099 962.071 352.33 956.952 348.392 C 954.899 346.811 953.489 347.918 951.811 348.922 C 950.039 349.985 950.263 351.301 950.81 352.915 C 953.493 360.848 956.106 368.802 958.762 376.743 C 959.318 378.401 959.952 380.031 960.569 381.729 C 963.139 380.815 964.705 379.098 966.99 377.55 M 1161.095 349.749 C 1157.823 352.164 1154.64 354.716 1151.25 356.957 C 1148.066 359.06 1145.674 361.247 1146.844 365.599 C 1147.187 366.875 1146.599 368.416 1146.368 369.824 C 1146.185 370.926 1146.043 372.045 1146.981 372.832 C 1150.861 376.088 1154.886 379.14 1159.434 381.952 C 1162.647 372.439 1165.702 363.516 1168.644 354.556 C 1169.19 352.896 1170.427 351.114 1167.988 349.512 C 1165.678 347.995 1163.7 346.951 1161.095 349.749 M 1170.998 417.479 C 1166.634 416.264 1162.264 415.073 1157.913 413.819 C 1156.366 413.374 1155.312 413.486 1154.362 415.101 C 1151.245 420.394 1150.414 425.635 1153.635 431.235 C 1154.503 432.744 1155.298 433.325 1156.983 432.933 C 1166.963 430.603 1176.953 428.322 1186.941 426.034 C 1188.261 425.732 1189.645 425.455 1189.601 423.713 C 1189.556 421.985 1188.065 421.752 1186.823 421.435 C 1181.744 420.139 1176.651 418.897 1170.998 417.479 M 934.681 440.275 C 942.252 445.598 949.822 450.92 957.871 456.578 C 960.108 450.044 962.086 444.264 964.18 438.144 C 952.657 434.856 941.387 433.396 930.439 430.565 C 928.732 430.122 928.228 431.616 927.532 432.686 C 926.631 434.074 927.545 434.916 928.531 435.672 C 930.426 437.124 932.35 438.543 934.681 440.275 M 972.579 486.596 C 972.958 486.149 973.703 485.662 973.66 485.262 C 973.319 482.172 973.473 479.124 973.966 476.063 C 974.041 475.601 973.611 474.874 973.198 474.544 C 969.318 471.448 965.389 468.413 961.48 465.363 C 960.899 465.984 960.545 466.197 960.441 466.497 C 957.421 475.284 954.515 484.112 950.916 492.687 C 950.318 494.11 950.584 495.254 952.056 495.949 C 953.936 496.834 955.355 499.278 958.028 497.236 C 962.669 493.693 967.458 490.347 972.579 486.596 M 933.438 425.755 C 943.36 427.839 953.295 429.849 963.189 432.059 C 965.482 432.571 966.136 431.642 967.22 429.862 C 970.261 424.863 968.197 420.538 966.253 415.978 C 965.262 413.651 964.217 413.007 961.675 413.786 C 952.21 416.682 942.657 419.283 932.966 421.346 C 931.691 421.618 930.159 421.623 930.103 423.408 C 930.042 425.265 931.743 425.138 933.438 425.755 M 1148.547 487.099 C 1153.122 490.358 1157.752 493.546 1162.251 496.909 C 1164.619 498.679 1166.153 497.089 1168.025 496.064 C 1170.018 494.971 1169.387 493.576 1168.861 492.091 C 1165.987 483.985 1163.114 475.875 1160.219 467.776 C 1159.911 466.913 1159.763 465.881 1158.506 465.508 C 1155.493 467.325 1152.852 469.742 1150.154 472.088 C 1146.733 475.064 1145.67 482.774 1148.547 487.099 M 1164.687 455.089 C 1173.489 448.931 1182.301 442.789 1191.077 436.594 C 1192.235 435.775 1194.107 435.208 1193.06 433.051 C 1192.075 431.024 1190.631 430.379 1188.392 430.968 C 1181.591 432.762 1174.751 434.407 1167.939 436.161 C 1164.268 437.107 1160.458 437.543 1156.517 439.148 C 1158.318 444.548 1160.084 449.835 1161.845 455.124 C 1162.493 457.072 1163.444 455.701 1164.687 455.089 M 942.525 413.407 C 949.349 411.744 956.157 410.029 963.245 407.508 C 961.396 401.912 959.631 396.57 957.656 390.588 C 947.494 397.864 937.896 404.722 928.315 411.601 C 926.979 412.562 927.147 413.764 927.864 415.079 C 928.552 416.337 929.45 416.668 930.828 416.309 C 934.523 415.347 938.24 414.482 942.525 413.407 M 1163.284 391.206 C 1161.495 391.162 1161.714 392.778 1161.362 393.739 C 1160.132 397.104 1159.223 400.59 1157.913 403.92 C 1156.815 406.714 1157.573 407.958 1160.443 408.697 C 1169.466 411.019 1178.455 413.486 1187.422 416.02 C 1189.594 416.633 1191.237 416.947 1192.448 414.423 C 1193.699 411.813 1191.532 411.279 1190.241 410.349 C 1181.414 403.994 1172.53 397.716 1163.284 391.206 M 971.126 414.627 C 972.415 415.619 972.434 414.371 972.643 413.706 C 975.912 403.331 979.124 392.94 982.422 382.577 C 983.253 379.965 981.056 379.371 979.798 378.084 C 978.557 376.815 977.359 376.862 975.996 377.849 C 972.219 380.586 968.441 383.322 964.614 385.987 C 963.116 387.031 962.65 388.304 963.192 390.001 C 965.771 398.082 968.351 406.16 971.126 414.627 M 1144.239 403.213 C 1145.444 406.995 1146.649 410.778 1147.92 414.766 C 1148.515 414.245 1148.769 414.13 1148.846 413.94 C 1152.157 405.881 1154.167 397.39 1157.046 389.186 C 1157.594 387.625 1156.629 386.754 1155.509 385.937 C 1152.042 383.409 1148.504 380.965 1145.165 378.276 C 1142.964 376.501 1141.41 377.395 1139.472 378.691 C 1137.449 380.042 1137.403 381.492 1138.085 383.565 C 1140.172 389.901 1142.097 396.291 1144.239 403.213 M 1072.668 552.175 C 1071.916 553.273 1071.072 554.356 1072.221 555.699 C 1073.446 557.132 1074.783 556.539 1076.118 555.922 C 1077.85 555.122 1079.56 554.268 1081.311 553.51 C 1088.318 550.474 1095.318 547.416 1102.367 544.479 C 1104.267 543.686 1105.153 542.403 1105.418 540.473 C 1105.682 538.546 1104.2 538.084 1102.948 537.44 C 1099.764 535.803 1096.505 534.3 1093.396 532.532 C 1091.174 531.268 1089.75 531.338 1088.018 533.547 C 1083.157 539.744 1078.002 545.708 1072.668 552.175 M 1149.629 465.357 C 1151.272 464.169 1152.831 462.836 1154.576 461.825 C 1157.137 460.343 1157.406 458.53 1156.436 455.846 C 1154.088 449.344 1152.056 442.73 1149.821 436.187 C 1149.423 435.02 1149.377 433.571 1147.998 432.846 C 1146.748 433.854 1146.702 435.378 1146.288 436.683 C 1143.626 445.088 1141.227 453.582 1138.329 461.904 C 1137.165 465.249 1138.372 466.808 1140.786 468.704 C 1143.453 470.799 1144.89 468.914 1146.655 467.613 C 1147.518 466.976 1148.357 466.305 1149.629 465.357 M 1062.879 548.153 C 1062.803 549.672 1063.493 550.615 1064.955 551.073 C 1066.606 551.592 1067.386 550.412 1068.185 549.42 C 1073.194 543.201 1078.173 536.957 1083.13 530.695 C 1083.691 529.988 1084.479 529.274 1083.976 527.926 C 1082.058 526.867 1079.95 525.765 1077.905 524.562 C 1074.82 522.75 1071.877 521.068 1068.952 524.977 C 1068.253 525.911 1066.73 526.372 1065.491 526.729 C 1063.37 527.338 1062.795 528.662 1062.83 530.726 C 1062.923 536.328 1062.868 541.932 1062.879 548.153 M 1039.662 553.632 C 1041.067 554.295 1042.456 554.999 1043.884 555.611 C 1045.013 556.095 1046.167 557.197 1047.334 555.565 C 1048.333 554.167 1047.667 553.099 1046.796 552.037 C 1041.717 545.842 1036.585 539.69 1031.583 533.434 C 1030.069 531.539 1028.631 531.485 1026.653 532.574 C 1023.618 534.246 1020.481 535.733 1017.385 537.292 C 1015.986 537.997 1014.637 538.591 1014.697 540.627 C 1014.755 542.628 1016.048 543.228 1017.509 543.866 C 1024.738 547.027 1031.959 550.206 1039.662 553.632 M 974.739 468.457 C 975.995 469.627 977.198 470.207 978.773 468.789 C 980.529 467.21 982.717 466.107 981.689 463.003 C 979.476 456.325 977.525 449.559 975.343 442.869 C 974.352 439.828 973.861 436.559 971.624 433.212 C 968.755 441.742 966.143 449.663 963.407 457.541 C 962.715 459.532 963.837 460.393 965.126 461.342 C 968.2 463.606 971.264 465.884 974.739 468.457 M 1062.885 312.948 C 1062.288 316.827 1063.338 319.606 1067.538 320.741 C 1069.242 321.202 1070.601 322.539 1071.79 323.922 C 1072.492 324.737 1073.24 325.62 1074.514 324.99 C 1077.893 323.322 1081.381 321.843 1084.573 319.648 C 1084.177 318.778 1084.031 318.171 1083.677 317.727 C 1078.191 310.813 1072.676 303.919 1067.167 297.021 C 1066.444 296.115 1065.662 295.605 1064.394 296.139 C 1063.199 296.641 1062.83 297.465 1062.836 298.65 C 1062.864 303.184 1062.87 307.718 1062.885 312.948 M 1056.328 296.841 C 1054.476 295.15 1053.239 296.033 1051.943 297.699 C 1048.422 302.224 1044.724 306.61 1041.231 311.154 C 1039.221 313.767 1036.604 315.939 1035.07 319.138 C 1038.215 321.403 1041.52 323.021 1044.78 324.723 C 1046.083 325.405 1047.019 325.013 1047.907 323.977 C 1049.664 321.931 1051.882 320.541 1054.453 319.77 C 1056.052 319.291 1056.844 318.342 1056.823 316.661 C 1056.737 310.215 1056.675 303.77 1056.328 296.841 M 1055.892 550.23 C 1057.132 549.24 1056.774 547.832 1056.79 546.562 C 1056.831 542.856 1056.593 539.135 1056.839 535.445 C 1057.143 530.861 1056.118 528.188 1051.457 525.462 C 1046.866 522.778 1043.98 523.44 1040.273 525.605 C 1039.655 525.966 1039.014 526.297 1038.355 526.577 C 1035.702 527.707 1035.314 529.279 1037.187 531.531 C 1042.081 537.414 1046.924 543.341 1051.77 549.262 C 1052.749 550.458 1053.764 551.38 1055.892 550.23 M 1034.604 376.225 C 1033.187 376.951 1032.348 377.995 1033.005 379.642 C 1033.35 380.508 1034.173 380.78 1035.067 380.664 C 1036.249 380.511 1037.041 379.827 1037.228 378.651 C 1037.478 377.066 1036.789 376.157 1034.604 376.225 M 1085.068 466.956 C 1083.36 467.043 1081.421 467.084 1081.95 469.558 C 1082.209 470.767 1083.231 472.264 1084.784 471.453 C 1086.548 470.529 1086.68 468.865 1085.068 466.956 M 1083.611 380.306 C 1085.226 380.958 1086.049 380.073 1086.521 378.716 C 1086.885 377.67 1086.377 376.876 1085.454 376.403 C 1084.658 375.995 1083.826 376.106 1083.183 376.738 C 1082.077 377.821 1081.97 378.952 1083.611 380.306 M 1034.18 467.423 C 1033.043 468.732 1032.895 470.077 1034.579 470.902 C 1035.703 471.45 1036.818 470.623 1037.054 469.546 C 1037.463 467.688 1036.327 467.014 1034.18 467.423 Z" style="" transform="matrix(1.0000000000000002, 0, 0, 1.0000000000000002, 4.547473508864641e-13, 2.2737367544323206e-13)"/>
  <path fill="#000000" opacity="1.000000" stroke="none" d="M 1353.388 302.813 C 1432.576 272.848 1505.269 334.078 1511.026 403.934 C 1516.882 474.993 1470.943 532.632 1400.893 540.84 C 1381.079 543.167 1362.171 538.58 1344.365 529.605 C 1340.335 527.574 1336.285 525.573 1329.99 522.437 C 1329.99 541.277 1330.013 558.078 1329.985 574.872 C 1329.956 590.983 1330.188 607.101 1329.735 623.198 C 1329.21 641.9 1316.558 655.658 1300.723 655.541 C 1285.317 655.419 1272.553 640.972 1272.529 622.314 C 1272.395 524.803 1272.456 427.289 1272.611 329.778 C 1272.637 312.916 1280.257 300.837 1292.11 297.195 C 1304.89 293.269 1317.047 298.038 1327.392 311.127 C 1328.437 312.45 1329.093 314.072 1329.692 315.131 C 1338.311 310.632 1345.396 306.923 1353.388 302.813 M 1389.647 353.659 C 1348.617 356.879 1329.456 387.974 1330.862 421.733 C 1332.48 460.723 1358.716 484.27 1395.815 482.926 C 1429.664 481.7 1455.628 452.932 1455.614 416.238 C 1455.606 384.311 1425.307 350.78 1389.647 353.659 Z" style="" transform="matrix(1.0000000000000002, 0, 0, 1.0000000000000002, 4.547473508864641e-13, 2.2737367544323206e-13)"/>
  <path fill="#000000" opacity="1.000000" stroke="none" d="M 1728.316 320.584 C 1758.142 346.381 1775.052 377.141 1773.195 416.772 C 1772.374 434.3 1768.013 439.374 1750.07 439.517 C 1704.687 439.874 1659.293 439.833 1613.908 440.07 C 1608.945 440.099 1603.714 438.938 1599.114 441.931 C 1600.643 463.277 1625.309 483.411 1651.486 484.679 C 1670.023 485.579 1685.156 477.937 1698.584 465.854 C 1710.565 455.075 1722.42 456.438 1737.271 470.001 C 1748.9 480.624 1750.411 490.547 1739.583 503.406 C 1717.411 529.734 1687.546 541.234 1653.994 541.327 C 1591.145 541.502 1540.524 492.133 1535.214 426.362 C 1531.349 378.48 1561.074 310.801 1632.958 297.41 C 1667.719 290.936 1699.448 298.274 1728.316 320.584 M 1664.036 393.564 C 1678.972 393.564 1693.911 393.564 1709.473 393.564 C 1702.797 368.752 1675.483 350.492 1651.161 352.359 C 1624.036 354.433 1601.367 371.918 1599.463 393.573 C 1620.199 393.573 1640.844 393.573 1664.036 393.564 Z" style="" transform="matrix(1.0000000000000002, 0, 0, 1.0000000000000002, 4.547473508864641e-13, 2.2737367544323206e-13)"/>
  <path fill="#000000" opacity="1.000000" stroke="none" d="M 569.714 398.517 C 604.531 411.352 621.715 434.241 620.986 465.86 C 620.283 496.433 598.419 524.702 566.189 535.423 C 528.704 547.892 493.236 542.322 460.461 520.854 C 450.235 514.16 438.344 505.556 440.509 492.048 C 442.974 476.711 458.91 472.139 470.91 465.523 C 476.828 462.254 482.106 467.653 486.942 470.902 C 500.473 479.984 514.292 488.142 531.452 487.247 C 534.404 487.095 537.38 486.888 540.274 486.332 C 551.829 484.117 562.69 479.317 563.252 466.323 C 563.796 453.652 552.29 450.525 542.339 447.835 C 527.222 443.746 511.721 440.886 496.848 436.073 C 461.567 424.66 442.606 401.33 442.335 370.586 C 442.077 341.025 464.363 310.642 496.017 300.162 C 529.329 289.141 562.299 290.209 592.382 310.303 C 610.977 322.724 611.678 339.765 595.715 355.043 C 585.02 365.28 577.827 365.809 565.381 357.668 C 553.541 349.929 541.225 343.24 526.343 345.143 C 512.483 346.911 502.896 354.918 502.121 365.57 C 501.115 379.417 511.708 383.819 521.858 386.837 C 537.258 391.416 553.102 394.493 569.714 398.517 Z" style="" transform="matrix(1.0000000000000002, 0, 0, 1.0000000000000002, 4.547473508864641e-13, 2.2737367544323206e-13)"/>
  <path fill="#000000" opacity="1.000000" stroke="none" d="M 665.298 478.856 C 625.394 411.079 663.134 328.526 725.45 304.06 C 766.867 287.795 818.858 296.315 848.376 326.708 C 856.326 334.887 861.501 343.807 856.458 355.183 C 850.858 367.821 841.486 376.548 827.484 379.484 C 821.935 380.645 819.029 376.863 815.673 373.594 C 793.196 351.7 765.022 346.845 740.132 360.494 C 716.022 373.708 702.881 403.747 708.605 432.57 C 714.046 459.989 736.571 481.457 764.369 484.324 C 782.432 486.185 798.741 480.799 812.279 468.239 C 826.266 455.254 834.555 455.54 850.085 469.671 C 860.781 479.406 861.784 493.977 851.709 506.166 C 838.581 522.048 821.265 531.809 801.551 536.902 C 746.613 551.087 696.903 529.965 665.298 478.856 Z" style="" transform="matrix(1.0000000000000002, 0, 0, 1.0000000000000002, 4.547473508864641e-13, 2.2737367544323206e-13)"/>
  <path fill="#000000" opacity="1.000000" stroke="none" d="M 1958.012 320.812 C 1961.712 345.963 1945.736 362.092 1921.755 358.66 C 1881.928 352.962 1859.607 372.36 1859.563 412.753 C 1859.524 444.108 1859.777 475.468 1859.404 506.82 C 1859.215 522.32 1849.793 533.964 1836.601 536.752 C 1824.167 539.379 1810.989 532.738 1804.697 520.997 C 1801.734 515.467 1801.815 509.608 1801.82 503.676 C 1801.87 446.895 1801.889 390.117 1801.972 333.334 C 1802 313.16 1808.324 302.088 1822.134 297.671 C 1835.351 293.437 1847.047 298.65 1858.765 313.991 C 1859.524 314.984 1860.313 315.962 1861.603 317.591 C 1873.251 312.007 1883.788 304.142 1896.209 299.95 C 1923.361 290.784 1944.057 297.332 1958.012 320.812 Z" style="" transform="matrix(1.0000000000000002, 0, 0, 1.0000000000000002, 4.547473508864641e-13, 2.2737367544323206e-13)"/>
  <path fill="#000000" opacity="1.000000" stroke="none" d="M 1067.25 452.583 C 1049.363 456.705 1033.031 445.03 1030.507 427.125 C 1028.729 414.498 1036.169 400.574 1051.107 396.248 C 1064.315 392.421 1077.561 396.986 1084.817 408.12 C 1091.734 418.731 1090.943 433.5 1082.823 442.938 C 1078.745 447.679 1073.613 450.876 1067.25 452.583 M 1049.486 424.018 C 1054.48 424.095 1058.217 421.89 1060.68 417.619 C 1062.691 414.127 1062.214 409.434 1059.74 406.533 C 1057.432 403.827 1053.086 402.959 1049.21 404.484 C 1046.832 405.42 1044.84 406.935 1043.247 408.921 C 1038.614 414.699 1041.55 422.508 1049.486 424.018 Z" style="" transform="matrix(1.0000000000000002, 0, 0, 1.0000000000000002, 4.547473508864641e-13, 2.2737367544323206e-13)"/>
</svg>